<?xml version="1.0" encoding="UTF-8" standalone="no"?>
<!-- Created with Inkscape (http://www.inkscape.org/) -->

<svg
   xmlns:dc="http://purl.org/dc/elements/1.1/"
   xmlns:cc="http://creativecommons.org/ns#"
   xmlns:rdf="http://www.w3.org/1999/02/22-rdf-syntax-ns#"
   xmlns:svg="http://www.w3.org/2000/svg"
   xmlns="http://www.w3.org/2000/svg"
   xmlns:sodipodi="http://sodipodi.sourceforge.net/DTD/sodipodi-0.dtd"
   xmlns:inkscape="http://www.inkscape.org/namespaces/inkscape"
   width="307.20001"
   height="255.89091"
   viewBox="0 0 288 239.89772"
   id="svg2"
   version="1.1"
   inkscape:version="0.92.0 unknown"
   sodipodi:docname="letters.svg"
   inkscape:export-filename="/home/david/Programs/dev/vm/VVV-1.2.0/www/wordpress-default/wp-content/plugins/nelio-content/admin/images/letters.png"
   inkscape:export-xdpi="90"
   inkscape:export-ydpi="90">
  <defs
     id="defs4" />
  <sodipodi:namedview
     id="base"
     pagecolor="#ffffff"
     bordercolor="#666666"
     borderopacity="1.0"
     inkscape:pageopacity="0.0"
     inkscape:pageshadow="2"
     inkscape:zoom="2.0011122"
     inkscape:cx="170.05206"
     inkscape:cy="126.72717"
     inkscape:document-units="px"
     inkscape:current-layer="layer1"
     showgrid="false"
     fit-margin-top="0"
     fit-margin-left="0"
     fit-margin-right="0"
     fit-margin-bottom="0"
     inkscape:window-width="1871"
     inkscape:window-height="1056"
     inkscape:window-x="49"
     inkscape:window-y="24"
     inkscape:window-maximized="1"
     showguides="true"
     units="px" />
  <metadata
     id="metadata7">
    <rdf:RDF>
      <cc:Work
         rdf:about="">
        <dc:format>image/svg+xml</dc:format>
        <dc:type
           rdf:resource="http://purl.org/dc/dcmitype/StillImage" />
        <dc:title />
      </cc:Work>
    </rdf:RDF>
  </metadata>
  <g
     inkscape:groupmode="layer"
     id="layer2"
     inkscape:label="Fons"
     style="display:none"
     transform="translate(28.493042,354.76712)"
     sodipodi:insensitive="true">
    <g
       transform="matrix(1.3333333,0,0,1.3333333,-6.8465397e-7,-32.000016)"
       style="display:inline"
       id="g5642">
      <rect
         y="-47.999989"
         x="0"
         height="144"
         width="288"
         id="rect4621"
         style="color:#000000;display:inline;overflow:visible;visibility:visible;opacity:1;fill:#000000;fill-opacity:1;fill-rule:nonzero;stroke:none;stroke-width:2;stroke-linecap:butt;stroke-linejoin:miter;stroke-miterlimit:4;stroke-dasharray:none;stroke-dashoffset:0;stroke-opacity:1;marker:none;enable-background:accumulate" />
    </g>
  </g>
  <g
     inkscape:label="Icones"
     inkscape:groupmode="layer"
     id="layer1"
     transform="translate(-5.7926702,231.54777)">
    <rect
       style="color:#000000;display:inline;overflow:visible;visibility:visible;opacity:1;fill:#9b26af;fill-opacity:1;fill-rule:nonzero;stroke:none;stroke-width:2;stroke-linecap:butt;stroke-linejoin:miter;stroke-miterlimit:4;stroke-dasharray:none;stroke-dashoffset:0;stroke-opacity:1;marker:none;enable-background:accumulate"
       id="rect4136-2-3-8-6-1-1"
       width="48"
       height="48.020462"
       x="5.7926702"
       y="-231.65004" />
    <g
       aria-label="A"
       transform="matrix(0.79982954,0,0,0.80017048,5.9522845,-41.588004)"
       style="font-style:normal;font-weight:normal;font-size:40.00852585px;line-height:125%;font-family:Sans;letter-spacing:0px;word-spacing:0px;fill:#ffffff;fill-opacity:1;stroke:none;stroke-width:1px;stroke-linecap:butt;stroke-linejoin:miter;stroke-opacity:1"
       id="text4187">
      <path
         d="m 29.767765,-218.59135 -5.352703,14.51481 h 10.724942 z m -2.227037,-3.88755 h 4.47361 l 11.11565,29.16637 h -4.102437 l -2.656816,-7.48206 H 23.223402 l -2.656816,7.48206 h -4.161043 z"
         style="font-style:normal;font-variant:normal;font-weight:normal;font-stretch:normal;font-family:'Helvetica Neue';-inkscape-font-specification:'Helvetica Neue';text-align:center;text-anchor:middle;fill:#ffffff"
         id="path142"
         inkscape:connector-curvature="0" />
    </g>
    <rect
       style="color:#000000;display:inline;overflow:visible;visibility:visible;opacity:1;fill:#2095f2;fill-opacity:1;fill-rule:nonzero;stroke:none;stroke-width:2;stroke-linecap:butt;stroke-linejoin:miter;stroke-miterlimit:4;stroke-dasharray:none;stroke-dashoffset:0;stroke-opacity:1;marker:none;enable-background:accumulate"
       id="rect4136-2-3-8-6-1-1-2"
       width="48"
       height="48.020462"
       x="53.792671"
       y="-231.65004" />
    <g
       aria-label="B"
       transform="matrix(0.79982954,0,0,0.80017048,15.663609,-41.588004)"
       style="font-style:normal;font-weight:normal;font-size:40.00852585px;line-height:125%;font-family:Sans;letter-spacing:0px;word-spacing:0px;fill:#ffffff;fill-opacity:1;stroke:none;stroke-width:1px;stroke-linecap:butt;stroke-linejoin:miter;stroke-opacity:1"
       id="text4187-7">
      <path
         d="m 71.936888,-207.24128 v 10.68587 h 6.329474 q 3.184273,0 4.708035,-1.30887 1.543297,-1.32841 1.543297,-4.04383 0,-2.73496 -1.543297,-4.0243 -1.523762,-1.30887 -4.708035,-1.30887 z m 0,-11.99474 v 8.79093 h 5.841089 q 2.891241,0 4.297791,-1.07445 1.426085,-1.09398 1.426085,-3.32102 0,-2.2075 -1.426085,-3.30148 -1.40655,-1.09398 -4.297791,-1.09398 z m -3.946153,-3.24288 h 10.080273 q 4.512681,0 6.954607,1.8754 2.441927,1.8754 2.441927,5.33317 0,2.67635 -1.250267,4.25872 -1.250266,1.58236 -3.672657,1.97307 2.910776,0.62514 4.51268,2.61775 1.621439,1.97307 1.621439,4.94246 0,3.90708 -2.656816,6.03644 -2.656816,2.12936 -7.560205,2.12936 H 67.990735 Z"
         style="font-style:normal;font-variant:normal;font-weight:normal;font-stretch:normal;font-family:'Helvetica Neue';-inkscape-font-specification:'Helvetica Neue';text-align:center;text-anchor:middle;fill:#ffffff"
         id="path164"
         inkscape:connector-curvature="0" />
    </g>
    <rect
       style="color:#000000;display:inline;overflow:visible;visibility:visible;opacity:1;fill:#8ac249;fill-opacity:1;fill-rule:nonzero;stroke:none;stroke-width:2;stroke-linecap:butt;stroke-linejoin:miter;stroke-miterlimit:4;stroke-dasharray:none;stroke-dashoffset:0;stroke-opacity:1;marker:none;enable-background:accumulate"
       id="rect4136-2-3-8-6-1-1-0"
       width="48"
       height="48.020462"
       x="101.79266"
       y="-231.65004" />
    <g
       aria-label="C"
       transform="matrix(0.79982954,0,0,0.80017048,25.156191,-41.584096)"
       style="font-style:normal;font-weight:normal;font-size:40.00852585px;line-height:125%;font-family:Sans;letter-spacing:0px;word-spacing:0px;fill:#ffffff;fill-opacity:1;stroke:none;stroke-width:1px;stroke-linecap:butt;stroke-linejoin:miter;stroke-opacity:1"
       id="text4187-0">
      <path
         d="m 137.56808,-220.23233 v 4.16104 q -1.99261,-1.85586 -4.25872,-2.77403 -2.24658,-0.91816 -4.78618,-0.91816 -5.00106,0 -7.65788,3.06706 -2.65682,3.04752 -2.65682,8.83001 0,5.76294 2.65682,8.83 2.65682,3.04753 7.65788,3.04753 2.5396,0 4.78618,-0.91817 2.26611,-0.91816 4.25872,-2.77403 v 4.12198 q -2.07076,1.40655 -4.39547,2.10982 -2.30518,0.70328 -4.88385,0.70328 -6.62251,0 -10.43191,-4.04383 -3.80941,-4.06337 -3.80941,-11.07658 0,-7.03275 3.80941,-11.07658 3.8094,-4.06337 10.43191,-4.06337 2.61774,0 4.92292,0.70328 2.32471,0.68374 4.3564,2.07075 z"
         style="font-style:normal;font-variant:normal;font-weight:normal;font-stretch:normal;font-family:'Helvetica Neue';-inkscape-font-specification:'Helvetica Neue';text-align:center;text-anchor:middle;fill:#ffffff"
         id="path167"
         inkscape:connector-curvature="0" />
    </g>
    <rect
       style="color:#000000;display:inline;overflow:visible;visibility:visible;opacity:1;fill:#fec006;fill-opacity:1;fill-rule:nonzero;stroke:none;stroke-width:2;stroke-linecap:butt;stroke-linejoin:miter;stroke-miterlimit:4;stroke-dasharray:none;stroke-dashoffset:0;stroke-opacity:1;marker:none;enable-background:accumulate"
       id="rect4136-2-3-8-6-1-1-8"
       width="48"
       height="48.020462"
       x="149.79266"
       y="-231.65004" />
    <g
       aria-label="D"
       transform="matrix(0.79982954,0,0,0.80017048,34.910486,-41.588004)"
       style="font-style:normal;font-weight:normal;font-size:40.00852585px;line-height:125%;font-family:Sans;letter-spacing:0px;word-spacing:0px;fill:#ffffff;fill-opacity:1;stroke:none;stroke-width:1px;stroke-linecap:butt;stroke-linejoin:miter;stroke-opacity:1"
       id="text4187-6">
      <path
         d="m 166.27731,-219.23602 v 22.68061 h 4.76664 q 6.03645,0 8.83001,-2.73496 2.8131,-2.73495 2.8131,-8.63465 0,-5.86062 -2.8131,-8.57605 -2.79356,-2.73495 -8.83001,-2.73495 z m -3.94615,-3.24288 h 8.1072 q 8.47836,0 12.44405,3.53591 3.96569,3.51637 3.96569,11.01797 0,7.54067 -3.98522,11.07658 -3.98523,3.53591 -12.42452,3.53591 h -8.1072 z"
         style="font-style:normal;font-variant:normal;font-weight:normal;font-stretch:normal;font-family:'Helvetica Neue';-inkscape-font-specification:'Helvetica Neue';text-align:center;text-anchor:middle;fill:#ffffff"
         id="path170"
         inkscape:connector-curvature="0" />
    </g>
    <rect
       style="color:#000000;display:inline;overflow:visible;visibility:visible;opacity:1;fill:#009587;fill-opacity:1;fill-rule:nonzero;stroke:none;stroke-width:2;stroke-linecap:butt;stroke-linejoin:miter;stroke-miterlimit:4;stroke-dasharray:none;stroke-dashoffset:0;stroke-opacity:1;marker:none;enable-background:accumulate"
       id="rect4136-2-3-8-6-1-1-1"
       width="48"
       height="48.020462"
       x="197.79266"
       y="-231.65004" />
    <g
       aria-label="E"
       transform="matrix(0.79982954,0,0,0.80017048,44.485094,-41.588004)"
       style="font-style:normal;font-weight:normal;font-size:40.00852585px;line-height:125%;font-family:Sans;letter-spacing:0px;word-spacing:0px;fill:#ffffff;fill-opacity:1;stroke:none;stroke-width:1px;stroke-linecap:butt;stroke-linejoin:miter;stroke-opacity:1"
       id="text4187-8">
      <path
         d="m 213.07634,-222.4789 h 18.44143 v 3.32102 h -14.49528 v 8.63465 h 13.88968 v 3.32102 h -13.88968 v 10.56866 h 14.84692 v 3.32102 h -18.79307 z"
         style="font-style:normal;font-variant:normal;font-weight:normal;font-stretch:normal;font-family:'Helvetica Neue';-inkscape-font-specification:'Helvetica Neue';text-align:center;text-anchor:middle;fill:#ffffff"
         id="path176"
         inkscape:connector-curvature="0" />
    </g>
    <rect
       style="color:#000000;display:inline;overflow:visible;visibility:visible;opacity:1;fill:#fe5621;fill-opacity:1;fill-rule:nonzero;stroke:none;stroke-width:2;stroke-linecap:butt;stroke-linejoin:miter;stroke-miterlimit:4;stroke-dasharray:none;stroke-dashoffset:0;stroke-opacity:1;marker:none;enable-background:accumulate"
       id="rect4136-2-3-8-6-1-1-10"
       width="48"
       height="48.020462"
       x="245.79266"
       y="-231.65004" />
    <g
       aria-label="F"
       transform="matrix(0.79982954,0,0,0.80017048,54.108533,-41.588004)"
       style="font-style:normal;font-weight:normal;font-size:40.00852585px;line-height:125%;font-family:Sans;letter-spacing:0px;word-spacing:0px;fill:#ffffff;fill-opacity:1;stroke:none;stroke-width:1px;stroke-linecap:butt;stroke-linejoin:miter;stroke-opacity:1"
       id="text4187-4">
      <path
         d="m 262.21963,-222.4789 h 16.76139 v 3.32102 h -12.81523 v 8.59558 h 11.56496 v 3.32102 h -11.56496 v 13.92875 h -3.94616 z"
         style="font-style:normal;font-variant:normal;font-weight:normal;font-stretch:normal;font-family:'Helvetica Neue';-inkscape-font-specification:'Helvetica Neue';text-align:center;text-anchor:middle;fill:#ffffff"
         id="path173"
         inkscape:connector-curvature="0" />
    </g>
    <rect
       style="color:#000000;display:inline;overflow:visible;visibility:visible;opacity:1;fill:#e81d62;fill-opacity:1;fill-rule:nonzero;stroke:none;stroke-width:2;stroke-linecap:butt;stroke-linejoin:miter;stroke-miterlimit:4;stroke-dasharray:none;stroke-dashoffset:0;stroke-opacity:1;marker:none;enable-background:accumulate"
       id="rect4136-2-3-8-6-1-1-9"
       width="48"
       height="48.020462"
       x="5.7926702"
       y="-183.62958" />
    <g
       aria-label="G"
       transform="matrix(0.79982954,0,0,0.80017048,5.8468157,-31.980001)"
       style="font-style:normal;font-weight:normal;font-size:40.00852585px;line-height:125%;font-family:Sans;letter-spacing:0px;word-spacing:0px;fill:#ffffff;fill-opacity:1;stroke:none;stroke-width:1px;stroke-linecap:butt;stroke-linejoin:miter;stroke-opacity:1"
       id="text4187-61">
      <path
         d="m 38.070316,-149.46333 v -7.83371 h -6.446687 v -3.24287 h 10.353769 v 12.5222 q -2.285643,1.62144 -5.040136,2.46146 -2.754494,0.82049 -5.88016,0.82049 -6.837394,0 -10.705406,-3.98523 -3.848476,-4.00476 -3.848476,-11.13518 0,-7.14997 3.848476,-11.13519 3.868012,-4.00476 10.705406,-4.00476 2.852171,0 5.41131,0.70328 2.578674,0.70327 4.747105,2.07075 v 4.20011 q -2.187966,-1.85586 -4.649428,-2.79356 -2.461462,-0.9377 -5.176885,-0.9377 -5.352703,0 -8.04859,2.98892 -2.676351,2.98892 -2.676351,8.90815 0,5.89969 2.676351,8.88861 2.695887,2.98892 8.04859,2.98892 2.09029,0 3.731264,-0.35164 1.640975,-0.37117 2.949848,-1.13305 z"
         style="font-style:normal;font-variant:normal;font-weight:normal;font-stretch:normal;font-family:'Helvetica Neue';-inkscape-font-specification:'Helvetica Neue';text-align:center;text-anchor:middle;fill:#ffffff"
         id="path194"
         inkscape:connector-curvature="0" />
    </g>
    <rect
       style="color:#000000;display:inline;overflow:visible;visibility:visible;opacity:1;fill:#3e50b4;fill-opacity:1;fill-rule:nonzero;stroke:none;stroke-width:2;stroke-linecap:butt;stroke-linejoin:miter;stroke-miterlimit:4;stroke-dasharray:none;stroke-dashoffset:0;stroke-opacity:1;marker:none;enable-background:accumulate"
       id="rect4136-2-3-8-6-1-1-2-8"
       width="48"
       height="48.020462"
       x="53.792671"
       y="-183.62958" />
    <g
       aria-label="H"
       transform="matrix(0.79982954,0,0,0.80017048,15.552281,-31.983909)"
       style="font-style:normal;font-weight:normal;font-size:40.00852585px;line-height:125%;font-family:Sans;letter-spacing:0px;word-spacing:0px;fill:#ffffff;fill-opacity:1;stroke:none;stroke-width:1px;stroke-linecap:butt;stroke-linejoin:miter;stroke-opacity:1"
       id="text4187-7-0">
      <path
         d="m 66.662327,-174.46866 h 3.946153 v 11.95567 h 14.338994 v -11.95567 h 3.946153 v 29.16637 h -3.946153 v -13.88968 H 70.60848 v 13.88968 h -3.946153 z"
         style="font-style:normal;font-variant:normal;font-weight:normal;font-stretch:normal;font-family:'Helvetica Neue';-inkscape-font-specification:'Helvetica Neue';text-align:center;text-anchor:middle;fill:#ffffff"
         id="path191"
         inkscape:connector-curvature="0" />
    </g>
    <rect
       style="color:#000000;display:inline;overflow:visible;visibility:visible;opacity:1;fill:#9b26af;fill-opacity:1;fill-rule:nonzero;stroke:none;stroke-width:2;stroke-linecap:butt;stroke-linejoin:miter;stroke-miterlimit:4;stroke-dasharray:none;stroke-dashoffset:0;stroke-opacity:1;marker:none;enable-background:accumulate"
       id="rect4136-2-3-8-6-1-1-0-5"
       width="48"
       height="48.020462"
       x="101.79266"
       y="-183.62958" />
    <g
       aria-label="I"
       transform="matrix(0.79982954,0,0,0.80017048,25.152284,-31.983909)"
       style="font-style:normal;font-weight:normal;font-size:40.00852585px;line-height:125%;font-family:Sans;letter-spacing:0px;word-spacing:0px;fill:#ffffff;fill-opacity:1;stroke:none;stroke-width:1px;stroke-linecap:butt;stroke-linejoin:miter;stroke-opacity:1"
       id="text4187-0-5">
      <path
         d="m 123.81515,-174.46866 h 3.94615 v 29.16637 h -3.94615 z"
         style="font-style:normal;font-variant:normal;font-weight:normal;font-stretch:normal;font-family:'Helvetica Neue';-inkscape-font-specification:'Helvetica Neue';text-align:center;text-anchor:middle;fill:#ffffff"
         id="path188"
         inkscape:connector-curvature="0" />
    </g>
    <rect
       style="color:#000000;display:inline;overflow:visible;visibility:visible;opacity:1;fill:#2095f2;fill-opacity:1;fill-rule:nonzero;stroke:none;stroke-width:2;stroke-linecap:butt;stroke-linejoin:miter;stroke-miterlimit:4;stroke-dasharray:none;stroke-dashoffset:0;stroke-opacity:1;marker:none;enable-background:accumulate"
       id="rect4136-2-3-8-6-1-1-8-2"
       width="48"
       height="48.020462"
       x="149.79266"
       y="-183.62958" />
    <g
       aria-label="J"
       transform="matrix(0.79982954,0,0,0.80017048,34.152673,-31.182787)"
       style="font-style:normal;font-weight:normal;font-size:40.00852585px;line-height:125%;font-family:Sans;letter-spacing:0px;word-spacing:0px;fill:#ffffff;fill-opacity:1;stroke:none;stroke-width:1px;stroke-linecap:butt;stroke-linejoin:miter;stroke-opacity:1"
       id="text4187-6-0">
      <path
         d="m 171.82537,-174.46866 h 3.94615 v 27.13469 q 0,5.27456 -2.01214,7.65788 -1.99262,2.38332 -6.42716,2.38332 H 165.828 v -3.32102 h 1.23073 q 2.61774,0 3.69219,-1.46516 1.07445,-1.46515 1.07445,-5.25502 z"
         style="font-style:normal;font-variant:normal;font-weight:normal;font-stretch:normal;font-family:'Helvetica Neue';-inkscape-font-specification:'Helvetica Neue';text-align:center;text-anchor:middle;fill:#ffffff"
         id="path185"
         inkscape:connector-curvature="0" />
    </g>
    <rect
       style="color:#000000;display:inline;overflow:visible;visibility:visible;opacity:1;fill:#8ac249;fill-opacity:1;fill-rule:nonzero;stroke:none;stroke-width:2;stroke-linecap:butt;stroke-linejoin:miter;stroke-miterlimit:4;stroke-dasharray:none;stroke-dashoffset:0;stroke-opacity:1;marker:none;enable-background:accumulate"
       id="rect4136-2-3-8-6-1-1-1-4"
       width="48"
       height="48.020462"
       x="197.79266"
       y="-183.62958" />
    <g
       aria-label="K"
       transform="matrix(0.79982954,0,0,0.80017048,44.82689,-31.983909)"
       style="font-style:normal;font-weight:normal;font-size:40.00852585px;line-height:125%;font-family:Sans;letter-spacing:0px;word-spacing:0px;fill:#ffffff;fill-opacity:1;stroke:none;stroke-width:1px;stroke-linecap:butt;stroke-linejoin:miter;stroke-opacity:1"
       id="text4187-8-2">
      <path
         d="m 212.60749,-174.46866 h 3.94615 v 12.32684 l 13.08873,-12.32684 h 5.07921 l -14.47574,13.59664 15.51111,15.56973 h -5.19641 l -14.0069,-14.04596 v 14.04596 h -3.94615 z"
         style="font-style:normal;font-variant:normal;font-weight:normal;font-stretch:normal;font-family:'Helvetica Neue';-inkscape-font-specification:'Helvetica Neue';text-align:center;text-anchor:middle;fill:#ffffff"
         id="path182"
         inkscape:connector-curvature="0" />
    </g>
    <rect
       style="color:#000000;display:inline;overflow:visible;visibility:visible;opacity:1;fill:#fec006;fill-opacity:1;fill-rule:nonzero;stroke:none;stroke-width:2;stroke-linecap:butt;stroke-linejoin:miter;stroke-miterlimit:4;stroke-dasharray:none;stroke-dashoffset:0;stroke-opacity:1;marker:none;enable-background:accumulate"
       id="rect4136-2-3-8-6-1-1-10-2"
       width="48"
       height="48.020462"
       x="245.79266"
       y="-183.62958" />
    <g
       aria-label="L"
       transform="matrix(0.79982954,0,0,0.80017048,54.32533,-31.983909)"
       style="font-style:normal;font-weight:normal;font-size:40.00852585px;line-height:125%;font-family:Sans;letter-spacing:0px;word-spacing:0px;fill:#ffffff;fill-opacity:1;stroke:none;stroke-width:1px;stroke-linecap:butt;stroke-linejoin:miter;stroke-opacity:1"
       id="text4187-4-7">
      <path
         d="m 262.61034,-174.46866 h 3.94615 v 25.84535 h 14.20225 v 3.32102 h -18.1484 z"
         style="font-style:normal;font-variant:normal;font-weight:normal;font-stretch:normal;font-family:'Helvetica Neue';-inkscape-font-specification:'Helvetica Neue';text-align:center;text-anchor:middle;fill:#ffffff"
         id="path179"
         inkscape:connector-curvature="0" />
    </g>
    <rect
       style="color:#000000;display:inline;overflow:visible;visibility:visible;opacity:1;fill:#009587;fill-opacity:1;fill-rule:nonzero;stroke:none;stroke-width:2;stroke-linecap:butt;stroke-linejoin:miter;stroke-miterlimit:4;stroke-dasharray:none;stroke-dashoffset:0;stroke-opacity:1;marker:none;enable-background:accumulate"
       id="rect4136-2-3-8-6-1-1-6"
       width="48"
       height="48.020462"
       x="5.7926702"
       y="-135.60912" />
    <g
       aria-label="M"
       transform="matrix(0.79982954,0,0,0.80017048,5.9522844,-22.379821)"
       style="font-style:normal;font-weight:normal;font-size:40.00852585px;line-height:125%;font-family:Sans;letter-spacing:0px;word-spacing:0px;fill:#ffffff;fill-opacity:1;stroke:none;stroke-width:1px;stroke-linecap:butt;stroke-linejoin:miter;stroke-opacity:1"
       id="text4187-9">
      <path
         d="m 16.425078,-126.45845 h 5.880159 l 7.442993,19.84798 7.482063,-19.84798 h 5.880159 v 29.166374 H 39.261976 V -122.903 l -7.521134,20.00426 H 27.775153 L 20.254019,-122.903 v 25.610924 h -3.828941 z"
         style="font-style:normal;font-variant:normal;font-weight:normal;font-stretch:normal;font-family:'Helvetica Neue';-inkscape-font-specification:'Helvetica Neue';text-align:center;text-anchor:middle;fill:#ffffff"
         id="path212"
         inkscape:connector-curvature="0" />
    </g>
    <rect
       style="color:#000000;display:inline;overflow:visible;visibility:visible;opacity:1;fill:#fe5621;fill-opacity:1;fill-rule:nonzero;stroke:none;stroke-width:2;stroke-linecap:butt;stroke-linejoin:miter;stroke-miterlimit:4;stroke-dasharray:none;stroke-dashoffset:0;stroke-opacity:1;marker:none;enable-background:accumulate"
       id="rect4136-2-3-8-6-1-1-2-0"
       width="48"
       height="48.020462"
       x="53.792671"
       y="-135.60912" />
    <g
       aria-label="N"
       transform="matrix(0.79982954,0,0,0.80017048,15.552281,-22.379821)"
       style="font-style:normal;font-weight:normal;font-size:40.00852585px;line-height:125%;font-family:Sans;letter-spacing:0px;word-spacing:0px;fill:#ffffff;fill-opacity:1;stroke:none;stroke-width:1px;stroke-linecap:butt;stroke-linejoin:miter;stroke-opacity:1"
       id="text4187-7-3">
      <path
         d="m 66.740469,-126.45845 h 5.313632 l 12.932443,24.39973 v -24.39973 h 3.828941 v 29.166374 H 83.501853 L 70.56941,-121.69181 v 24.399734 h -3.828941 z"
         style="font-style:normal;font-variant:normal;font-weight:normal;font-stretch:normal;font-family:'Helvetica Neue';-inkscape-font-specification:'Helvetica Neue';text-align:center;text-anchor:middle;fill:#ffffff"
         id="path209"
         inkscape:connector-curvature="0" />
    </g>
    <rect
       style="color:#000000;display:inline;overflow:visible;visibility:visible;opacity:1;fill:#e81d62;fill-opacity:1;fill-rule:nonzero;stroke:none;stroke-width:2;stroke-linecap:butt;stroke-linejoin:miter;stroke-miterlimit:4;stroke-dasharray:none;stroke-dashoffset:0;stroke-opacity:1;marker:none;enable-background:accumulate"
       id="rect4136-2-3-8-6-1-1-0-1"
       width="48"
       height="48.020462"
       x="101.79266"
       y="-135.60912" />
    <g
       aria-label="O"
       transform="matrix(0.79982954,0,0,0.80017048,25.152283,-22.375912)"
       style="font-style:normal;font-weight:normal;font-size:40.00852585px;line-height:125%;font-family:Sans;letter-spacing:0px;word-spacing:0px;fill:#ffffff;fill-opacity:1;stroke:none;stroke-width:1px;stroke-linecap:butt;stroke-linejoin:miter;stroke-opacity:1"
       id="text4187-0-7">
      <path
         d="m 125.80776,-123.7821 q -4.29779,0 -6.8374,3.20381 -2.52006,3.20381 -2.52006,8.73233 0,5.50899 2.52006,8.7128 2.53961,3.203803 6.8374,3.203803 4.29779,0 6.79832,-3.203803 2.52007,-3.20381 2.52007,-8.7128 0,-5.52852 -2.52007,-8.73233 -2.50053,-3.20381 -6.79832,-3.20381 z m 0,-3.2038 q 6.13412,0 9.80678,4.12197 3.67265,4.10243 3.67265,11.01797 0,6.896 -3.67265,11.01797 -3.67266,4.102441 -9.80678,4.102441 -6.15366,0 -9.84585,-4.102441 -3.67266,-4.10243 -3.67266,-11.01797 0,-6.91554 3.67266,-11.01797 3.69219,-4.12197 9.84585,-4.12197 z"
         style="font-style:normal;font-variant:normal;font-weight:normal;font-stretch:normal;font-family:'Helvetica Neue';-inkscape-font-specification:'Helvetica Neue';text-align:center;text-anchor:middle;fill:#ffffff"
         id="path206"
         inkscape:connector-curvature="0" />
    </g>
    <rect
       style="color:#000000;display:inline;overflow:visible;visibility:visible;opacity:1;fill:#3e50b4;fill-opacity:1;fill-rule:nonzero;stroke:none;stroke-width:2;stroke-linecap:butt;stroke-linejoin:miter;stroke-miterlimit:4;stroke-dasharray:none;stroke-dashoffset:0;stroke-opacity:1;marker:none;enable-background:accumulate"
       id="rect4136-2-3-8-6-1-1-8-6"
       width="48"
       height="48.020462"
       x="149.79266"
       y="-135.60912" />
    <g
       aria-label="P"
       transform="matrix(0.79982954,0,0,0.80017048,35.006189,-22.379821)"
       style="font-style:normal;font-weight:normal;font-size:40.00852585px;line-height:125%;font-family:Sans;letter-spacing:0px;word-spacing:0px;fill:#ffffff;fill-opacity:1;stroke:none;stroke-width:1px;stroke-linecap:butt;stroke-linejoin:miter;stroke-opacity:1"
       id="text4187-6-5">
      <path
         d="m 169.59833,-123.21557 v 10.95937 h 4.962 q 2.75449,0 4.25872,-1.42609 1.50422,-1.42608 1.50422,-4.06336 0,-2.61775 -1.50422,-4.04383 -1.50423,-1.42609 -4.25872,-1.42609 z m -3.94615,-3.24288 h 8.90815 q 4.90339,0 7.40392,2.22704 2.52007,2.2075 2.52007,6.48576 0,4.31732 -2.52007,6.52482 -2.50053,2.20751 -7.40392,2.20751 h -4.962 v 11.721244 h -3.94615 z"
         style="font-style:normal;font-variant:normal;font-weight:normal;font-stretch:normal;font-family:'Helvetica Neue';-inkscape-font-specification:'Helvetica Neue';text-align:center;text-anchor:middle;fill:#ffffff"
         id="path203"
         inkscape:connector-curvature="0" />
    </g>
    <rect
       style="color:#000000;display:inline;overflow:visible;visibility:visible;opacity:1;fill:#9b26af;fill-opacity:1;fill-rule:nonzero;stroke:none;stroke-width:2;stroke-linecap:butt;stroke-linejoin:miter;stroke-miterlimit:4;stroke-dasharray:none;stroke-dashoffset:0;stroke-opacity:1;marker:none;enable-background:accumulate"
       id="rect4136-2-3-8-6-1-1-1-6"
       width="48"
       height="48.020462"
       x="197.79266"
       y="-135.60912" />
    <g
       aria-label="Q"
       transform="matrix(0.79982954,0,0,0.80017048,44.352281,-21.916731)"
       style="font-style:normal;font-weight:normal;font-size:40.00852585px;line-height:125%;font-family:Sans;letter-spacing:0px;word-spacing:0px;fill:#ffffff;fill-opacity:1;stroke:none;stroke-width:1px;stroke-linecap:butt;stroke-linejoin:miter;stroke-opacity:1"
       id="text4187-8-22">
      <path
         d="m 221.82821,-123.7821 q -4.2978,0 -6.8374,3.20381 -2.52007,3.20381 -2.52007,8.73233 0,5.50899 2.52007,8.7128 2.5396,3.203803 6.8374,3.203803 4.29779,0 6.79832,-3.203803 2.52007,-3.20381 2.52007,-8.7128 0,-5.52852 -2.52007,-8.73233 -2.50053,-3.20381 -6.79832,-3.20381 z m 5.52852,25.962568 5.19642,5.684805 h -4.76664 l -4.31733,-4.668964 q -0.64467,0.03907 -0.99631,0.05861 -0.3321,0.01954 -0.64466,0.01954 -6.15366,0 -9.84585,-4.102439 -3.67266,-4.12197 -3.67266,-11.01797 0,-6.91554 3.67266,-11.01797 3.69219,-4.12197 9.84585,-4.12197 6.13412,0 9.80677,4.12197 3.67266,4.10243 3.67266,11.01797 0,5.07921 -2.05122,8.69326 -2.03168,3.614049 -5.89969,5.333166 z"
         style="font-style:normal;font-variant:normal;font-weight:normal;font-stretch:normal;font-family:'Helvetica Neue';-inkscape-font-specification:'Helvetica Neue';text-align:center;text-anchor:middle;fill:#ffffff"
         id="path200"
         inkscape:connector-curvature="0" />
    </g>
    <rect
       style="color:#000000;display:inline;overflow:visible;visibility:visible;opacity:1;fill:#2095f2;fill-opacity:1;fill-rule:nonzero;stroke:none;stroke-width:2;stroke-linecap:butt;stroke-linejoin:miter;stroke-miterlimit:4;stroke-dasharray:none;stroke-dashoffset:0;stroke-opacity:1;marker:none;enable-background:accumulate"
       id="rect4136-2-3-8-6-1-1-10-8"
       width="48"
       height="48.020462"
       x="245.79266"
       y="-135.60912" />
    <g
       aria-label="R"
       transform="matrix(0.79982954,0,0,0.80017048,54.227674,-22.379821)"
       style="font-style:normal;font-weight:normal;font-size:40.00852585px;line-height:125%;font-family:Sans;letter-spacing:0px;word-spacing:0px;fill:#ffffff;fill-opacity:1;stroke:none;stroke-width:1px;stroke-linecap:butt;stroke-linejoin:miter;stroke-opacity:1"
       id="text4187-4-6">
      <path
         d="m 273.66739,-110.96687 q 1.2698,0.42978 2.46146,1.83633 1.21119,1.40655 2.42239,3.86802 l 4.00476,7.970444 h -4.23919 l -3.73126,-7.482064 q -1.44562,-2.93031 -2.8131,-3.88755 -1.34794,-0.95723 -3.69219,-0.95723 h -4.29779 v 12.326844 h -3.94616 v -29.166374 h 8.90815 q 5.00107,0 7.46253,2.09029 2.46146,2.09029 2.46146,6.30994 0,2.75449 -1.28934,4.57129 -1.2698,1.81679 -3.71172,2.52006 z m -9.88492,-12.2487 v 10.35377 h 4.96199 q 2.85217,0 4.29779,-1.30887 1.46516,-1.32841 1.46516,-3.88755 0,-2.55914 -1.46516,-3.84848 -1.44562,-1.30887 -4.29779,-1.30887 z"
         style="font-style:normal;font-variant:normal;font-weight:normal;font-stretch:normal;font-family:'Helvetica Neue';-inkscape-font-specification:'Helvetica Neue';text-align:center;text-anchor:middle;fill:#ffffff"
         id="path197"
         inkscape:connector-curvature="0" />
    </g>
    <rect
       style="color:#000000;display:inline;overflow:visible;visibility:visible;opacity:1;fill:#8ac249;fill-opacity:1;fill-rule:nonzero;stroke:none;stroke-width:2;stroke-linecap:butt;stroke-linejoin:miter;stroke-miterlimit:4;stroke-dasharray:none;stroke-dashoffset:0;stroke-opacity:1;marker:none;enable-background:accumulate"
       id="rect4136-2-3-8-6-1-1-5"
       width="48"
       height="48.020462"
       x="5.7926702"
       y="-87.588661" />
    <g
       aria-label="S"
       transform="matrix(0.79982954,0,0,0.80017048,5.9933,-12.77182)"
       style="font-style:normal;font-weight:normal;font-size:40.00852585px;line-height:125%;font-family:Sans;letter-spacing:0px;word-spacing:0px;fill:#ffffff;fill-opacity:1;stroke:none;stroke-width:1px;stroke-linecap:butt;stroke-linejoin:miter;stroke-opacity:1"
       id="text4187-1">
      <path
         d="m 38.480559,-77.490981 v 3.848476 q -2.246572,-1.074448 -4.239184,-1.601904 -1.992613,-0.527456 -3.848477,-0.527456 -3.223343,0 -4.98153,1.250266 -1.738652,1.250267 -1.738652,3.555445 0,1.934006 1.15259,2.930312 1.172124,0.976771 4.415003,1.582369 l 2.38332,0.488385 q 4.415004,0.840023 6.505293,2.969383 2.109824,2.109825 2.109824,5.66527 0,4.239184 -2.85217,6.427151 -2.832635,2.187966 -8.322086,2.187966 -2.070754,0 -4.415003,-0.46885 -2.324714,-0.46885 -4.825247,-1.387014 v -4.063366 q 2.402856,1.347943 4.708034,2.031683 2.305179,0.683739 4.532216,0.683739 3.379627,0 5.215955,-1.328408 1.836329,-1.328408 1.836329,-3.78987 0,-2.148895 -1.328408,-3.360091 -1.308872,-1.211196 -4.317326,-1.816794 l -2.402856,-0.468849 q -4.415003,-0.879094 -6.38808,-2.754494 -1.973077,-1.875399 -1.973077,-5.215955 0,-3.868012 2.715423,-6.095049 2.734958,-2.227037 7.521134,-2.227037 2.051218,0 4.180578,0.371173 2.12936,0.371173 4.356397,1.113519 z"
         style="font-style:normal;font-variant:normal;font-weight:normal;font-stretch:normal;font-family:'Helvetica Neue';-inkscape-font-specification:'Helvetica Neue';text-align:center;text-anchor:middle;fill:#ffffff"
         id="path230"
         inkscape:connector-curvature="0" />
    </g>
    <rect
       style="color:#000000;display:inline;overflow:visible;visibility:visible;opacity:1;fill:#fe9700;fill-opacity:1;fill-rule:nonzero;stroke:none;stroke-width:2;stroke-linecap:butt;stroke-linejoin:miter;stroke-miterlimit:4;stroke-dasharray:none;stroke-dashoffset:0;stroke-opacity:1;marker:none;enable-background:accumulate"
       id="rect4136-2-3-8-6-1-1-2-1"
       width="48"
       height="48.020462"
       x="53.792671"
       y="-87.588661" />
    <g
       aria-label="T"
       transform="matrix(0.79982954,0,0,0.80017048,15.550328,-12.775728)"
       style="font-style:normal;font-weight:normal;font-size:40.00852585px;line-height:125%;font-family:Sans;letter-spacing:0px;word-spacing:0px;fill:#ffffff;fill-opacity:1;stroke:none;stroke-width:1px;stroke-linecap:butt;stroke-linejoin:miter;stroke-opacity:1"
       id="text4187-7-5">
      <path
         d="m 65.431596,-78.448217 h 24.673227 v 3.32102 H 79.751054 v 25.845352 H 75.785365 V -75.127197 H 65.431596 Z"
         style="font-style:normal;font-variant:normal;font-weight:normal;font-stretch:normal;font-family:'Helvetica Neue';-inkscape-font-specification:'Helvetica Neue';text-align:center;text-anchor:middle;fill:#ffffff"
         id="path227"
         inkscape:connector-curvature="0" />
    </g>
    <rect
       style="color:#000000;display:inline;overflow:visible;visibility:visible;opacity:1;fill:#009587;fill-opacity:1;fill-rule:nonzero;stroke:none;stroke-width:2;stroke-linecap:butt;stroke-linejoin:miter;stroke-miterlimit:4;stroke-dasharray:none;stroke-dashoffset:0;stroke-opacity:1;marker:none;enable-background:accumulate"
       id="rect4136-2-3-8-6-1-1-0-3"
       width="48"
       height="48.020462"
       x="101.79266"
       y="-87.588661" />
    <g
       aria-label="U"
       transform="matrix(0.79982954,0,0,0.80017048,25.150331,-12.719063)"
       style="font-style:normal;font-weight:normal;font-size:40.00852585px;line-height:125%;font-family:Sans;letter-spacing:0px;word-spacing:0px;fill:#ffffff;fill-opacity:1;stroke:none;stroke-width:1px;stroke-linecap:butt;stroke-linejoin:miter;stroke-opacity:1"
       id="text4187-0-4">
      <path
         d="m 114.61397,-78.448217 h 3.96569 v 17.71862 q 0,4.688499 1.69958,6.759253 1.69958,2.051218 5.50898,2.051218 3.78987,0 5.48945,-2.051218 1.69959,-2.070754 1.69959,-6.759253 v -17.71862 h 3.96568 v 18.207005 q 0,5.704341 -2.83263,8.615117 -2.8131,2.910777 -8.32209,2.910777 -5.52852,0 -8.36115,-2.910777 -2.8131,-2.910776 -2.8131,-8.615117 z"
         style="font-style:normal;font-variant:normal;font-weight:normal;font-stretch:normal;font-family:'Helvetica Neue';-inkscape-font-specification:'Helvetica Neue';text-align:center;text-anchor:middle;fill:#ffffff"
         id="path224"
         inkscape:connector-curvature="0" />
    </g>
    <rect
       style="color:#000000;display:inline;overflow:visible;visibility:visible;opacity:1;fill:#fe5621;fill-opacity:1;fill-rule:nonzero;stroke:none;stroke-width:2;stroke-linecap:butt;stroke-linejoin:miter;stroke-miterlimit:4;stroke-dasharray:none;stroke-dashoffset:0;stroke-opacity:1;marker:none;enable-background:accumulate"
       id="rect4136-2-3-8-6-1-1-8-4"
       width="48"
       height="48.020462"
       x="149.79266"
       y="-87.588661" />
    <g
       aria-label="V"
       transform="matrix(0.79982954,0,0,0.80017048,34.752282,-12.775728)"
       style="font-style:normal;font-weight:normal;font-size:40.00852585px;line-height:125%;font-family:Sans;letter-spacing:0px;word-spacing:0px;fill:#ffffff;fill-opacity:1;stroke:none;stroke-width:1px;stroke-linecap:butt;stroke-linejoin:miter;stroke-opacity:1"
       id="text4187-6-2">
      <path
         d="m 171.57141,-49.281845 -11.13519,-29.166372 h 4.12198 l 9.24025,24.556014 9.25978,-24.556014 h 4.10244 l -11.11565,29.166372 z"
         style="font-style:normal;font-variant:normal;font-weight:normal;font-stretch:normal;font-family:'Helvetica Neue';-inkscape-font-specification:'Helvetica Neue';text-align:center;text-anchor:middle;fill:#ffffff"
         id="path221"
         inkscape:connector-curvature="0" />
    </g>
    <rect
       style="color:#000000;display:inline;overflow:visible;visibility:visible;opacity:1;fill:#785447;fill-opacity:1;fill-rule:nonzero;stroke:none;stroke-width:2;stroke-linecap:butt;stroke-linejoin:miter;stroke-miterlimit:4;stroke-dasharray:none;stroke-dashoffset:0;stroke-opacity:1;marker:none;enable-background:accumulate"
       id="rect4136-2-3-8-6-1-1-1-0"
       width="48"
       height="48.020462"
       x="197.79266"
       y="-87.588661" />
    <g
       aria-label="W"
       transform="matrix(0.79982954,0,0,0.80017048,44.356188,-12.775728)"
       style="font-style:normal;font-weight:normal;font-size:40.00852585px;line-height:125%;font-family:Sans;letter-spacing:0px;word-spacing:0px;fill:#ffffff;fill-opacity:1;stroke:none;stroke-width:1px;stroke-linecap:butt;stroke-linejoin:miter;stroke-opacity:1"
       id="text4187-8-7">
      <path
         d="m 203.36724,-78.448217 h 3.98522 l 6.13412,24.653692 6.11459,-24.653692 h 4.43454 l 6.13412,24.653692 6.11458,-24.653692 h 4.00476 l -7.32578,29.166372 h -4.96199 l -6.15366,-25.317895 -6.21226,25.317895 h -4.962 z"
         style="font-style:normal;font-variant:normal;font-weight:normal;font-stretch:normal;font-family:'Helvetica Neue';-inkscape-font-specification:'Helvetica Neue';text-align:center;text-anchor:middle;fill:#ffffff"
         id="path218"
         inkscape:connector-curvature="0" />
    </g>
    <rect
       style="color:#000000;display:inline;overflow:visible;visibility:visible;opacity:1;fill:#f34235;fill-opacity:1;fill-rule:nonzero;stroke:none;stroke-width:2;stroke-linecap:butt;stroke-linejoin:miter;stroke-miterlimit:4;stroke-dasharray:none;stroke-dashoffset:0;stroke-opacity:1;marker:none;enable-background:accumulate"
       id="rect4136-2-3-8-6-1-1-10-1"
       width="48"
       height="48.020462"
       x="245.79266"
       y="-87.588661" />
    <g
       aria-label="X"
       transform="matrix(0.79982954,0,0,0.80017048,53.944471,-12.775728)"
       style="font-style:normal;font-weight:normal;font-size:40.00852585px;line-height:125%;font-family:Sans;letter-spacing:0px;word-spacing:0px;fill:#ffffff;fill-opacity:1;stroke:none;stroke-width:1px;stroke-linecap:butt;stroke-linejoin:miter;stroke-opacity:1"
       id="text4187-4-4">
      <path
         d="m 258.62512,-78.448217 h 4.23918 l 7.24764,10.842155 7.28671,-10.842155 h 4.23918 l -9.37699,14.006891 10.00213,15.159481 h -4.23919 l -8.20487,-12.404987 -8.26348,12.404987 h -4.25872 l 10.41237,-15.569724 z"
         style="font-style:normal;font-variant:normal;font-weight:normal;font-stretch:normal;font-family:'Helvetica Neue';-inkscape-font-specification:'Helvetica Neue';text-align:center;text-anchor:middle;fill:#ffffff"
         id="path215"
         inkscape:connector-curvature="0" />
    </g>
    <rect
       style="color:#000000;display:inline;overflow:visible;visibility:visible;opacity:1;fill:#fe9700;fill-opacity:1;fill-rule:nonzero;stroke:none;stroke-width:2;stroke-linecap:butt;stroke-linejoin:miter;stroke-miterlimit:4;stroke-dasharray:none;stroke-dashoffset:0;stroke-opacity:1;marker:none;enable-background:accumulate"
       id="rect4136-2-3-8-6-1-1-81"
       width="48"
       height="48.020462"
       x="5.7926702"
       y="-39.670509" />
    <g
       aria-label="Y"
       transform="matrix(0.79982954,0,0,0.80017048,5.9503313,-3.1920969)"
       style="font-style:normal;font-weight:normal;font-size:40.00852585px;line-height:125%;font-family:Sans;letter-spacing:0px;word-spacing:0px;fill:#ffffff;fill-opacity:1;stroke:none;stroke-width:1px;stroke-linecap:butt;stroke-linejoin:miter;stroke-opacity:1"
       id="text4187-94">
      <path
         d="m 17.460455,-30.54027 h 4.239184 L 29.7873,-18.545527 37.816355,-30.54027 H 42.05554 L 31.740842,-15.263577 V -1.3738985 H 27.775153 V -15.263577 Z"
         style="font-style:normal;font-variant:normal;font-weight:normal;font-stretch:normal;font-family:'Helvetica Neue';-inkscape-font-specification:'Helvetica Neue';text-align:center;text-anchor:middle;fill:#ffffff"
         id="path236"
         inkscape:connector-curvature="0" />
    </g>
    <rect
       style="color:#000000;display:inline;overflow:visible;visibility:visible;opacity:1;fill:#3e50b4;fill-opacity:1;fill-rule:nonzero;stroke:none;stroke-width:2;stroke-linecap:butt;stroke-linejoin:miter;stroke-miterlimit:4;stroke-dasharray:none;stroke-dashoffset:0;stroke-opacity:1;marker:none;enable-background:accumulate"
       id="rect4136-2-3-8-6-1-1-2-4"
       width="48"
       height="48.020462"
       x="53.792671"
       y="-39.670509" />
    <g
       aria-label="Z"
       transform="matrix(0.79982954,0,0,0.80017048,15.550328,-3.1920969)"
       style="font-style:normal;font-weight:normal;font-size:40.00852585px;line-height:125%;font-family:Sans;letter-spacing:0px;word-spacing:0px;fill:#ffffff;fill-opacity:1;stroke:none;stroke-width:1px;stroke-linecap:butt;stroke-linejoin:miter;stroke-opacity:1"
       id="text4187-7-8">
      <path
         d="m 66.31069,-30.54027 h 22.915039 v 3.008453 l -18.44143,22.8368983 h 18.890745 v 3.3210202 H 65.861375 V -4.3823521 L 84.302805,-27.21925 H 66.31069 Z"
         style="font-style:normal;font-variant:normal;font-weight:normal;font-stretch:normal;font-family:'Helvetica Neue';-inkscape-font-specification:'Helvetica Neue';text-align:center;text-anchor:middle;fill:#ffffff"
         id="path233"
         inkscape:connector-curvature="0" />
    </g>
    <rect
       style="color:#000000;display:inline;overflow:visible;visibility:visible;opacity:1;fill:#b3b3b3;fill-opacity:1;fill-rule:nonzero;stroke:none;stroke-width:2;stroke-linecap:butt;stroke-linejoin:miter;stroke-miterlimit:4;stroke-dasharray:none;stroke-dashoffset:0;stroke-opacity:1;marker:none;enable-background:accumulate"
       id="rect4136-2-3-8-6-1-1-2-4-1"
       width="48"
       height="48.020462"
       x="101.79267"
       y="-39.670509" />
    <path
       style="color:#000000;clip-rule:nonzero;display:inline;overflow:visible;visibility:visible;opacity:1;isolation:auto;mix-blend-mode:normal;color-interpolation:sRGB;color-interpolation-filters:linearRGB;solid-color:#000000;solid-opacity:1;fill:#ffffff;fill-opacity:1;fill-rule:nonzero;stroke:none;stroke-width:3;stroke-linecap:butt;stroke-linejoin:round;stroke-miterlimit:4;stroke-dasharray:none;stroke-dashoffset:0;stroke-opacity:1;marker:none;color-rendering:auto;image-rendering:auto;shape-rendering:auto;text-rendering:auto;enable-background:accumulate"
       d="m 115.62695,223.02344 c -7.2672,0 -13.11718,5.84998 -13.11718,13.11718 v 3.75782 h 34.98046 v -3.75782 c 0,-7.2672 -5.84997,-13.11718 -13.11718,-13.11718 z"
       transform="translate(5.7926702,-231.54778)"
       id="rect4219"
       inkscape:connector-curvature="0" />
    <circle
       style="color:#000000;clip-rule:nonzero;display:inline;overflow:visible;visibility:visible;opacity:1;isolation:auto;mix-blend-mode:normal;color-interpolation:sRGB;color-interpolation-filters:linearRGB;solid-color:#000000;solid-opacity:1;fill:#ffffff;fill-opacity:1;fill-rule:nonzero;stroke:#b3b3b3;stroke-width:3;stroke-linecap:butt;stroke-linejoin:round;stroke-miterlimit:4;stroke-dasharray:none;stroke-dashoffset:0;stroke-opacity:1;marker:none;color-rendering:auto;image-rendering:auto;shape-rendering:auto;text-rendering:auto;enable-background:accumulate"
       id="path4240-9"
       cx="125.79268"
       cy="-19.21188"
       r="11.453786" />
  </g>
</svg>
